<svg xmlns="http://www.w3.org/2000/svg" xmlns:xlink="http://www.w3.org/1999/xlink" width="16" height="16"
    preserveAspectRatio="xMidYMid meet" viewBox="0 0 1024 1024"
    style="-ms-transform: rotate(360deg); -webkit-transform: rotate(360deg); transform: rotate(360deg);">
    <path
        d="M1013.998 963l-51 51q-10 10-24.5 10t-25.5-10l-179-180l-117 117q-9 10-23 10t-24-10l-48-48q-10-10-10-24t10-23l85-85l-591-591q-4-5-7.5-10.5t-5-9.5t-2.5-9.5t-1-8.5V32q0-13 9.5-22.5t22.5-9.5h110.5l8 1l9.5 2.5l9.5 5l10.5 7.5l591 591l85-85q9-10 23-10t24 10l48 48q10 10 10 24t-10 24l-117 116l180 179q10 11 10 25.5t-10 24.5z"
        fill="white" />
    <rect x="0" y="0" width="1024" height="1024" fill="rgba(0, 0, 0, 0)" />
</svg>