<svg xmlns="http://www.w3.org/2000/svg" xmlns:xlink="http://www.w3.org/1999/xlink" width="24" height="24" preserveAspectRatio="xMidYMid meet" viewBox="0 0 24 24" style="-ms-transform: rotate(270deg); -webkit-transform: rotate(270deg); transform: rotate(270deg);"><path d="M12.146 16.596a1 1 0 1 1-1.414 1.414l-1.414-1.414l-2.828 2.829a1 1 0 0 1-1.415 1.414l-1.414-1.414a1 1 0 0 1 1.414-1.415l2.829-2.828l-1.414-1.414a1 1 0 0 1 1.414-1.414l4.242 4.242zm.708-.707L8.61 11.646l8.486-8.485l3.536.707l.707 3.536l-8.485 8.485z" fill="white"/><rect x="0" y="0" width="24" height="24" fill="rgba(0, 0, 0, 0)" /></svg>